<?xml version="1.0" standalone="no"?>
<!DOCTYPE svg PUBLIC "-//W3C//DTD SVG 20010904//EN"
 "http://www.w3.org/TR/2001/REC-SVG-20010904/DTD/svg10.dtd">
<svg version="1.0" xmlns="http://www.w3.org/2000/svg"
 width="256.000000pt" height="128.000000pt" viewBox="0 0 256.000000 128.000000"
 preserveAspectRatio="xMidYMid meet">

<g transform="translate(0.000000,128.000000) scale(0.100000,-0.100000)"
fill="#000000" stroke="none">
<path d="M0 640 l0 -640 1280 0 1280 0 0 640 0 640 -1280 0 -1280 0 0 -640z
m106 606 c-4 -24 -4 -24 23 -8 24 13 33 14 59 3 38 -16 50 -51 19 -52 -20 -1
-20 -2 3 -8 l25 -7 -22 -8 c-13 -4 -28 -4 -34 0 -8 5 -9 3 -4 -5 4 -7 16 -11
26 -8 11 3 19 1 19 -4 0 -5 -8 -9 -17 -10 -14 0 -13 -2 5 -9 29 -12 38 -37 23
-63 -14 -21 -16 -21 34 -1 8 3 15 1 15 -5 0 -17 -46 -31 -80 -25 -31 7 -39 -3
-18 -24 6 -6 9 -15 5 -18 -9 -10 -37 16 -37 33 0 12 -7 14 -30 9 -33 -6 -80 8
-80 24 0 6 9 6 26 0 34 -13 36 -13 23 9 -15 24 -6 49 23 61 17 6 18 9 6 9 -9
1 -19 5 -22 10 -4 5 2 7 13 4 10 -3 22 1 26 8 5 7 4 10 -3 6 -5 -4 -21 -3 -34
2 -22 9 -22 10 7 11 24 2 26 3 10 8 -14 5 -21 18 -23 45 -2 22 1 37 7 37 7 0
9 -11 7 -24z m1311 -58 c-2 -15 -1 -27 2 -26 51 5 108 -29 123 -72 4 -13 9
-12 28 5 21 19 22 19 19 1 -2 -10 -11 -22 -19 -26 -8 -4 -35 -17 -58 -29 -47
-22 -112 -28 -112 -10 0 6 9 9 20 6 11 -3 25 2 32 11 11 14 10 15 -6 9 -42
-16 -63 40 -24 67 12 9 17 16 11 16 -6 0 -21 -12 -32 -26 -16 -21 -23 -23 -40
-15 -11 6 -32 11 -48 12 -25 0 -24 2 17 20 33 14 38 19 17 16 -49 -7 -59 58
-12 77 8 3 15 15 15 26 0 20 2 19 36 -7 28 -22 34 -34 31 -55z m-919 47 l32
-8 -25 -46 c-17 -31 -19 -39 -6 -24 l18 22 21 -22 c16 -17 18 -26 11 -42 -10
-20 -10 -20 5 -1 9 11 16 23 16 28 0 4 5 8 11 8 7 0 8 -7 4 -17 -14 -36 -17
-48 -8 -36 15 21 42 -11 48 -58 l6 -44 -21 28 c-12 15 -27 27 -33 27 -6 0 -20
8 -31 17 -12 10 -15 11 -8 3 14 -16 17 -100 3 -100 -5 0 -11 10 -13 22 -2 17
-12 24 -33 28 -23 4 -32 13 -41 39 -6 19 -34 54 -65 82 -49 44 -59 69 -13 34
27 -20 50 -20 30 1 -16 16 -21 55 -9 67 7 8 46 4 101 -8z m1930 -23 c38 -29
44 -69 10 -74 -16 -2 -22 -10 -23 -30 0 -16 3 -28 7 -28 4 0 8 5 8 10 0 6 7
10 15 10 8 0 15 -7 15 -15 0 -8 -4 -15 -10 -15 -5 0 -7 -7 -4 -15 4 -10 13
-13 24 -10 10 3 22 0 26 -7 4 -7 2 -14 -5 -16 -11 -4 -11 -6 0 -13 9 -6 -1 -9
-29 -9 -46 0 -64 19 -42 45 11 13 10 14 -3 9 -9 -3 -17 -15 -19 -27 -5 -33
-25 -31 -32 4 -4 22 -1 38 9 49 21 23 19 30 -10 30 -27 0 -48 27 -59 73 -6 26
-5 28 16 21 45 -14 53 -11 50 20 -4 31 -1 31 56 -12z m-1417 1 c16 -15 51 -38
77 -50 40 -19 48 -20 55 -8 4 8 22 28 40 45 27 25 33 27 36 13 2 -10 10 -22
17 -28 8 -6 16 -23 17 -39 2 -25 -2 -30 -30 -38 -18 -5 -33 -12 -33 -16 0 -4
14 -19 32 -34 l33 -27 -37 2 c-21 2 -41 7 -45 12 -5 6 -4 7 2 3 5 -5 13 -8 19
-8 5 0 1 6 -10 14 -11 8 -30 12 -46 9 -15 -3 -39 -2 -54 1 -25 7 -26 8 -8 21
17 13 15 13 -13 3 -22 -8 -29 -15 -20 -20 7 -5 0 -6 -16 -2 -16 4 -33 1 -42
-6 -20 -16 -20 2 -1 33 8 12 17 38 20 58 5 28 2 39 -14 54 -19 17 -26 35 -15
35 3 0 19 -12 36 -27z m780 -45 c15 -28 0 -68 -25 -68 -17 0 -18 2 -6 10 8 5
11 10 5 10 -16 0 -37 -16 -33 -26 1 -5 -10 -10 -26 -12 -18 -2 -26 0 -21 7 3
6 -2 11 -12 12 -16 0 -16 1 2 9 15 7 16 9 4 9 -10 1 -19 13 -23 32 -11 59 -8
65 20 38 25 -24 26 -24 40 -5 8 11 14 26 14 35 0 16 45 -21 61 -51z m314 -31
c0 -24 6 -51 13 -59 14 -18 5 -81 -12 -75 -6 2 -13 14 -17 28 l-6 24 -4 -24
c-6 -37 -25 -36 -33 1 -5 25 -2 36 10 45 14 10 10 11 -21 6 -28 -4 -36 -3 -31
5 4 8 0 12 -11 13 -16 0 -16 1 2 9 14 6 15 9 5 9 -9 1 -24 15 -34 32 l-18 30
36 -6 c35 -7 36 -7 36 25 l0 32 43 -25 c39 -24 42 -28 42 -70z m-1325 37 c0
-1 -8 -8 -17 -15 -9 -8 -14 -9 -10 -2 5 7 -1 13 -15 16 -14 3 -11 4 10 4 17
-1 32 -2 32 -3z m1386 -47 c30 -23 32 -69 4 -97 -11 -11 -23 -20 -27 -20 -5 0
-9 39 -9 88 -1 48 1 78 3 68 3 -11 16 -28 29 -39z m-1312 31 c-3 -4 -11 -5
-19 -1 -21 7 -19 12 4 10 11 0 18 -5 15 -9z m52 -68 c3 0 2 5 -2 12 -4 6 -3 8
3 5 15 -9 3 -77 -16 -86 -9 -4 -34 -8 -56 -7 -31 1 -42 6 -54 28 -12 21 -13
31 -3 53 12 26 13 27 32 10 22 -20 44 -9 56 28 7 20 8 20 21 -10 7 -18 16 -33
19 -33z m-138 43 c-10 -2 -26 -2 -35 0 -10 3 -2 5 17 5 19 0 27 -2 18 -5z m79
1 c-3 -3 -12 -4 -19 -1 -8 3 -5 6 6 6 11 1 17 -2 13 -5z m1608 -14 c3 -5 -1
-10 -9 -10 -8 0 -18 5 -21 10 -3 6 1 10 9 10 8 0 18 -4 21 -10z m-1691 -38
c-7 -33 24 -78 59 -86 12 -2 -5 -2 -38 0 -33 3 -64 9 -69 14 -13 13 3 78 22
89 27 16 32 13 26 -17z m1104 -7 c3 -36 -6 -50 -35 -59 -19 -6 -21 -3 -20 26
2 28 -1 33 -20 30 -12 -2 -24 2 -28 8 -3 5 2 10 14 10 11 0 23 5 26 11 4 5 19
9 33 7 22 -2 28 -9 30 -33z m-80 -9 c20 -1 22 -5 16 -31 -3 -16 -8 -32 -10
-34 -7 -8 -24 12 -25 32 -1 21 -1 21 -8 -2 -10 -36 -27 -36 -35 0 -7 38 0 53
23 43 9 -4 26 -8 39 -8z m-852 -63 c-3 -7 -11 -13 -18 -13 -9 0 -9 3 0 12 7 7
12 17 12 23 -1 5 -10 -1 -21 -14 -11 -13 -22 -21 -26 -17 -4 3 3 13 15 22 12
8 22 23 23 32 0 12 3 9 10 -7 5 -14 7 -31 5 -38z m772 35 c21 -21 14 -38 -15
-37 -16 0 -22 3 -14 6 10 4 11 7 1 13 -7 4 -9 13 -6 19 9 14 19 14 34 -1z
m320 0 c21 -21 14 -38 -15 -37 -16 0 -22 3 -14 6 10 4 11 7 1 13 -7 4 -9 13
-6 19 9 14 19 14 34 -1z m320 0 c21 -21 14 -38 -15 -37 -16 0 -22 3 -14 6 10
4 11 7 1 13 -7 4 -9 13 -6 19 9 14 19 14 34 -1z m189 -24 c-3 -3 -12 -4 -19
-1 -8 3 -5 6 6 6 11 1 17 -2 13 -5z m-639 -11 c-10 -2 -28 -2 -40 0 -13 2 -5
4 17 4 22 1 32 -1 23 -4z m320 0 c-10 -2 -28 -2 -40 0 -13 2 -5 4 17 4 22 1
32 -1 23 -4z m-1998 -63 c0 -5 -4 -10 -10 -10 -5 0 -10 5 -10 10 0 6 5 10 10
10 6 0 10 -4 10 -10z m280 -23 c0 -18 -4 -37 -9 -42 -6 -6 5 -10 31 -11 33 0
46 -6 65 -30 16 -20 22 -37 19 -55 -3 -15 2 -36 11 -48 18 -27 8 -42 -11 -16
-16 22 -66 30 -66 10 0 -13 -49 -35 -79 -35 -13 0 -13 2 -3 9 11 6 8 14 -11
35 -14 15 -28 43 -32 64 -4 20 -16 45 -26 55 -24 23 -21 60 5 65 11 3 16 0 12
-7 -11 -17 0 -13 15 6 8 9 9 14 4 11 -6 -4 -17 -3 -25 3 -13 7 -12 9 2 9 30 0
48 -12 49 -34 1 -20 2 -20 6 -1 13 51 43 59 43 12z m917 -49 c-2 -15 -1 -27 2
-26 39 4 66 -6 93 -34 16 -18 42 -45 56 -60 20 -21 23 -28 12 -28 -9 0 -21 5
-27 11 -7 7 -21 4 -47 -10 -39 -22 -106 -28 -106 -10 0 6 9 9 20 6 11 -3 25 2
32 11 11 14 10 15 -6 9 -10 -4 -25 -2 -34 5 -13 11 -14 11 -7 -1 5 -9 4 -12
-2 -8 -16 10 -3 56 20 72 12 8 16 15 10 15 -6 0 -20 -11 -31 -25 -21 -26 -52
-25 -52 1 0 7 -13 20 -30 29 -20 10 -30 23 -30 38 0 13 3 17 8 11 10 -16 53
-37 60 -30 3 3 0 6 -6 6 -7 0 -12 10 -13 23 0 21 -1 21 -9 2 -8 -20 -8 -20
-16 -1 -5 14 -2 23 14 34 12 8 22 21 22 29 0 9 11 5 36 -14 28 -22 34 -34 31
-55z m1023 63 c0 -6 -4 -13 -10 -16 -16 -10 -11 -25 8 -25 27 0 56 -35 49 -60
-3 -11 -1 -18 4 -14 5 3 17 0 26 -5 15 -9 13 -10 -13 -11 -24 0 -34 6 -43 28
l-13 27 -22 -28 -22 -27 -21 27 -21 28 -12 -27 c-10 -22 -20 -28 -44 -28 -26
1 -28 2 -13 11 9 5 22 7 27 4 6 -3 7 1 4 10 -8 20 32 65 58 65 10 0 18 6 18
13 0 14 20 37 32 37 4 0 8 -4 8 -9z m-2241 -18 c14 -9 21 -11 17 -5 -4 7 -3
12 2 12 6 0 9 -11 8 -25 -1 -17 -7 -25 -21 -26 -16 -1 -15 -2 5 -8 l25 -7 -22
-8 c-13 -4 -28 -4 -34 0 -8 5 -9 3 -4 -5 4 -7 16 -11 26 -8 11 3 19 1 19 -4 0
-5 -8 -9 -17 -10 -14 0 -13 -2 5 -9 29 -12 38 -37 23 -63 -14 -21 -16 -21 34
-1 8 3 15 1 15 -5 0 -17 -46 -31 -80 -25 -23 5 -30 3 -30 -9 0 -17 -28 -43
-37 -33 -4 3 -1 12 5 18 21 21 13 31 -18 24 -33 -6 -80 8 -80 24 0 6 9 6 26 0
34 -13 36 -13 23 9 -15 24 -6 49 23 61 17 6 18 9 6 9 -9 1 -19 5 -22 10 -4 5
2 7 13 4 10 -3 22 1 26 8 5 7 4 10 -3 6 -5 -4 -18 -4 -29 0 -16 6 -15 8 7 14
24 7 24 7 2 8 -19 1 -21 4 -13 20 6 10 7 22 3 26 -4 5 -2 6 3 2 6 -3 17 -2 25
4 22 13 43 11 69 -8z m1976 7 c16 -7 12 -9 -20 -9 l-40 -1 33 -20 c33 -20 34
-22 27 -73 -4 -28 -18 -69 -32 -90 -27 -42 -39 -45 -24 -4 7 17 6 37 -2 62 -8
28 -8 41 2 58 13 21 12 21 -5 5 -16 -16 -17 -23 -7 -60 14 -52 6 -81 -13 -47
-7 13 -13 20 -14 16 0 -5 5 -17 11 -29 6 -11 8 -22 6 -25 -9 -9 -49 18 -44 30
3 8 -11 12 -45 11 -27 0 -51 3 -54 8 -3 5 -2 33 2 64 6 51 8 54 23 39 22 -19
31 -19 31 2 0 14 4 12 25 -7 27 -25 33 -55 13 -63 -7 -3 -3 -6 9 -6 17 -1 20
3 15 22 -3 12 -14 33 -24 46 -17 23 -17 25 -2 43 10 10 27 18 38 18 12 0 28 5
36 10 18 12 28 12 55 0z m-1420 -20 c-8 -9 -13 -19 -10 -22 3 -2 -1 -5 -8 -5
-8 0 -14 6 -14 13 0 7 4 11 8 8 4 -2 10 0 13 5 4 5 -6 12 -21 14 -20 3 -18 4
9 4 34 -1 36 -3 23 -17z m375 5 c32 -16 55 -50 45 -65 -8 -12 43 6 64 23 12
10 13 8 7 -11 -4 -13 -3 -28 2 -35 32 -42 13 -84 -36 -74 -15 3 -38 -1 -52 -8
-14 -8 -36 -14 -49 -15 l-23 0 22 18 c28 23 35 72 14 98 -14 18 -15 18 -4 -4
15 -31 4 -61 -26 -68 -19 -5 -23 -11 -18 -30 9 -36 -2 -29 -29 20 -17 30 -21
48 -15 54 6 6 8 18 5 27 -6 13 -12 10 -37 -17 -43 -48 -37 -18 8 35 34 41 64
65 85 66 4 1 21 -6 37 -14z m630 7 c0 -10 -22 -32 -32 -32 -4 0 -5 6 -2 14 3
8 -2 16 -13 19 -10 3 -4 5 15 6 17 0 32 -3 32 -7z m-73 -22 c14 -11 31 -20 38
-20 6 0 20 9 30 20 10 11 23 20 28 20 6 0 2 -9 -7 -19 -16 -18 -16 -19 -1 -17
10 0 22 -7 29 -17 9 -16 7 -22 -11 -34 -13 -9 -23 -23 -22 -32 0 -12 2 -13 6
-2 3 8 17 24 32 37 l26 22 17 -26 c13 -19 18 -22 18 -11 0 9 7 19 15 23 12 4
14 -3 9 -42 -8 -64 -12 -74 -26 -66 -7 4 -5 -2 5 -13 19 -22 23 -43 7 -43 -9
0 -14 14 -11 32 0 3 -14 10 -32 13 -17 4 -43 14 -57 23 -23 14 -24 14 -12 -1
8 -9 22 -19 33 -22 18 -6 28 -45 11 -45 -4 0 -23 21 -42 46 -19 26 -52 63 -72
83 -26 25 -38 45 -38 64 0 19 -7 30 -22 37 l-23 9 23 0 c13 1 35 -8 49 -19z
m-843 -21 c-4 -7 -44 0 -44 7 0 2 11 3 24 2 14 -1 23 -5 20 -9z m-86 -16 c-10
-2 -28 -2 -40 0 -13 2 -5 4 17 4 22 1 32 -1 23 -4z m85 -10 c-7 -2 -21 -2 -30
0 -10 3 -4 5 12 5 17 0 24 -2 18 -5z m1547 -45 c0 -19 28 -6 39 19 l13 28 13
-25 c16 -29 18 -153 3 -144 -5 4 -8 14 -5 24 4 16 1 17 -24 8 -64 -22 -107 34
-78 104 12 28 13 29 26 12 7 -10 13 -21 13 -26z m-1488 -23 c8 -7 8 -6 3 4 -5
9 -4 12 3 7 15 -9 4 -36 -22 -59 l-21 -18 23 11 c14 7 22 7 22 1 0 -15 -30
-27 -71 -30 -29 -2 -40 3 -53 21 -20 28 -20 48 0 76 l16 23 15 -20 c19 -28 25
-27 47 12 20 32 20 32 24 7 2 -14 8 -29 14 -35z m-139 -18 c-5 -28 29 -74 60
-81 12 -2 -5 -2 -38 1 -33 3 -63 7 -67 10 -15 9 -8 50 12 71 27 28 38 28 33
-1z m357 -2 c-7 -8 -20 -15 -29 -15 -11 0 -8 5 9 14 33 19 35 19 20 1z m-184
-72 c-3 -7 -11 -13 -18 -13 -9 0 -9 3 0 12 7 7 12 17 12 23 -1 5 -10 -1 -21
-14 -11 -13 -22 -21 -26 -17 -4 3 3 13 15 22 12 8 22 23 23 32 0 12 3 9 10 -7
5 -14 7 -31 5 -38z m114 53 c0 -3 -4 -8 -10 -11 -5 -3 -10 -1 -10 4 0 6 5 11
10 11 6 0 10 -2 10 -4z m-485 -16 c3 -5 1 -10 -4 -10 -6 0 -11 5 -11 10 0 6 2
10 4 10 3 0 8 -4 11 -10z m595 -5 c-7 -8 -18 -15 -24 -15 -6 0 -2 7 8 15 25
19 32 19 16 0z m885 6 c10 -18 -17 -23 -33 -7 -15 15 -15 16 5 16 12 0 24 -4
28 -9z m-1517 -103 c6 -1 10 -3 7 -6 -2 -3 0 -13 5 -23 8 -14 6 -18 -13 -21
-20 -3 -19 -4 6 -10 26 -5 28 -4 22 22 -3 16 -1 31 4 35 14 8 14 -48 1 -97 -8
-29 -15 -36 -28 -31 -10 3 -7 -2 7 -12 21 -16 23 -23 18 -68 -4 -27 -9 -52
-13 -56 -3 -3 -16 6 -29 22 -13 15 -29 27 -35 27 -6 0 -22 -12 -35 -27 -13
-16 -26 -25 -29 -22 -4 4 -9 29 -13 56 -5 45 -3 52 18 68 14 10 17 15 7 12
-13 -5 -20 2 -28 31 -13 49 -13 105 1 97 5 -4 7 -19 4 -35 -6 -26 -4 -27 22
-22 25 6 26 7 6 10 -19 3 -21 7 -13 21 5 10 6 22 2 26 -4 5 -2 6 3 2 6 -3 17
-1 25 4 8 5 26 7 40 4 14 -3 31 -6 38 -7z m378 -35 c17 -6 44 -54 44 -78 0 -8
-8 -15 -17 -15 -13 0 -14 3 -5 12 7 7 12 17 12 22 0 6 -5 4 -10 -5 -6 -11 -19
-15 -37 -12 -21 3 -16 -2 17 -16 41 -18 42 -20 17 -20 -16 -1 -37 -6 -48 -12
-17 -8 -24 -6 -40 15 -11 14 -26 26 -32 26 -6 0 -1 -7 11 -16 39 -27 18 -83
-24 -67 -16 6 -17 5 -6 -9 7 -9 21 -14 32 -11 11 3 20 0 20 -6 0 -18 -65 -12
-112 10 -23 12 -50 25 -58 29 -8 4 -17 16 -19 26 -3 18 -2 18 19 -1 19 -17 24
-18 28 -5 15 43 73 77 123 72 3 -1 4 10 1 24 -4 20 3 32 29 54 32 26 34 27 37
8 2 -10 10 -22 18 -25z m1504 17 c0 -23 5 -30 19 -30 32 0 73 -58 69 -97 -2
-18 0 -33 4 -33 4 0 8 -5 8 -11 0 -8 -5 -8 -15 1 -8 7 -15 19 -15 27 0 8 -7
28 -16 46 l-17 32 -21 -28 -20 -27 -22 27 -21 27 -17 -31 c-9 -18 -16 -38 -16
-46 0 -8 -7 -20 -15 -27 -10 -9 -15 -9 -15 -1 0 6 3 11 8 11 4 0 7 20 7 44 1
49 25 86 57 86 13 0 18 8 18 30 0 17 5 30 10 30 6 0 10 -13 10 -30z m-315 -8
c5 -12 17 -22 26 -22 24 0 52 -36 46 -60 -3 -11 -1 -18 4 -14 5 3 17 0 26 -5
15 -9 13 -10 -13 -11 -24 0 -34 6 -44 28 l-12 27 -21 -28 -21 -27 -22 27 -22
28 -13 -27 c-9 -22 -19 -28 -43 -28 -26 1 -28 2 -13 11 9 5 21 8 26 5 5 -4 7
3 4 14 -7 25 22 60 49 60 19 0 24 15 8 25 -13 8 -2 27 13 22 7 -2 16 -13 22
-25z m-1847 -13 c2 -15 -4 -34 -13 -43 -21 -21 2 -22 29 -1 46 35 36 10 -13
-34 -31 -28 -59 -63 -65 -82 -9 -26 -18 -35 -41 -39 -21 -4 -31 -11 -33 -28
-2 -12 -8 -22 -13 -22 -14 0 -11 84 4 100 6 8 3 7 -9 -3 -11 -9 -25 -17 -31
-17 -6 0 -21 -12 -33 -27 l-21 -28 6 44 c6 47 33 79 48 58 8 -11 4 7 -10 41
-3 6 0 12 6 12 6 0 11 -4 11 -8 0 -5 7 -17 16 -28 15 -19 15 -19 5 1 -7 16 -5
25 11 42 l21 22 18 -22 c13 -15 12 -8 -5 23 l-25 44 32 11 c18 6 48 10 67 10
30 0 35 -4 38 -26z m1504 14 c15 -3 34 -13 43 -23 14 -15 14 -19 -3 -41 -10
-13 -21 -34 -24 -46 -5 -19 -2 -23 15 -22 12 0 16 3 10 6 -21 8 -15 38 12 63
21 19 25 21 25 7 0 -21 9 -21 31 -2 15 15 17 12 23 -39 4 -31 5 -59 2 -64 -3
-5 -27 -8 -54 -8 -34 1 -48 -3 -45 -11 5 -12 -35 -39 -44 -30 -2 3 0 14 6 25
6 12 11 24 11 29 -1 4 -7 -3 -14 -16 -19 -34 -27 -5 -13 47 10 37 9 44 -7 60
-17 16 -18 16 -5 -5 10 -17 10 -30 2 -58 -8 -25 -9 -45 -2 -62 15 -41 3 -38
-24 4 -14 21 -28 62 -32 90 -7 51 -6 53 27 73 l33 20 -40 1 c-32 0 -36 2 -20
9 11 5 29 7 40 4 11 -3 32 -8 47 -11z m-642 -35 c0 -19 28 -6 39 19 l13 28 14
-25 c20 -36 18 -64 -3 -56 -16 5 -15 4 1 -9 16 -12 17 -17 6 -30 -7 -8 -19
-15 -26 -15 -18 0 -18 -9 1 -30 10 -11 13 -27 9 -49 -8 -36 -25 -36 -35 0 -7
23 -7 23 -8 2 -1 -20 -18 -40 -25 -32 -2 2 -7 18 -10 34 -6 25 -1 36 25 63 24
25 30 37 25 57 -4 14 -11 23 -16 20 -5 -3 -11 -1 -15 5 -3 5 -14 10 -23 9 -14
0 -14 -2 2 -8 13 -5 19 -18 20 -39 1 -34 -14 -41 -34 -17 -11 13 -10 18 6 30
16 13 17 14 2 9 -21 -7 -24 13 -6 51 11 25 13 26 25 9 7 -10 13 -21 13 -26z
m480 34 c0 -5 -9 -17 -20 -27 -23 -21 -20 -69 8 -117 13 -22 14 -30 4 -40 -9
-9 -15 -9 -24 1 -11 12 -9 13 7 7 11 -4 16 -4 12 0 -3 4 -30 15 -59 25 -36 12
-47 13 -34 4 17 -13 15 -14 -18 -20 -20 -4 -43 -4 -52 -1 -8 3 -25 -1 -37 -9
-12 -8 -17 -15 -11 -15 5 0 14 3 20 8 5 4 6 3 1 -3 -4 -5 -24 -10 -44 -12
l-36 -2 32 29 c18 17 38 30 44 31 7 1 -8 6 -33 13 -41 11 -45 15 -43 42 1 16
9 33 17 39 7 6 15 18 17 28 3 14 9 12 36 -13 18 -17 36 -37 40 -45 7 -12 16
-11 58 10 28 13 61 35 74 49 25 26 41 33 41 18z m-1300 -27 c0 -2 -7 -5 -15
-9 -9 -3 -15 0 -15 9 0 9 6 12 15 9 8 -4 15 -7 15 -9z m840 -65 c0 -11 -4 -20
-10 -20 -5 0 -10 9 -10 20 0 11 5 20 10 20 6 0 10 -9 10 -20z m940 -22 c0 -19
28 -6 39 19 l13 28 15 -28 c35 -67 -10 -132 -76 -109 -25 9 -28 8 -24 -8 3
-10 0 -21 -5 -24 -14 -9 -14 101 0 138 11 27 12 27 25 10 7 -10 13 -21 13 -26z
m320 0 c0 -19 28 -6 39 19 l13 28 14 -25 c7 -14 13 -40 14 -58 0 -20 4 -31 10
-27 6 3 10 1 10 -5 0 -6 -6 -10 -12 -9 -7 1 -26 -3 -41 -9 -28 -12 -73 -7 -82
9 -3 4 -12 6 -20 2 -8 -3 -15 0 -15 7 0 6 5 8 10 5 6 -4 10 6 10 24 0 17 5 42
12 56 11 25 13 26 25 9 7 -10 13 -21 13 -26z m-1322 -80 c21 -21 14 -38 -15
-37 -16 0 -22 3 -14 6 10 4 11 7 1 13 -7 4 -9 13 -6 19 9 14 19 14 34 -1z
m148 0 c4 -6 2 -14 -5 -16 -11 -4 -11 -6 0 -13 10 -6 6 -9 -13 -9 -30 0 -37
17 -16 38 15 15 25 15 34 0z m616 -4 c-12 -8 -27 -12 -32 -9 -17 10 -1 25 28
25 l26 0 -22 -16z m-569 -31 c-7 -2 -19 -2 -25 0 -7 3 -2 5 12 5 14 0 19 -2
13 -5z m-1095 -65 c5 -7 12 -22 15 -33 4 -19 5 -19 6 1 1 22 19 34 49 34 14 0
15 -2 2 -9 -8 -6 -19 -7 -25 -3 -5 3 -4 -2 4 -11 15 -19 26 -23 15 -6 -4 7 1
10 12 7 26 -5 29 -42 5 -65 -10 -10 -22 -35 -26 -55 -4 -21 -18 -50 -31 -65
-27 -32 -30 -28 -9 13 15 29 6 55 -19 53 -7 0 -6 -2 2 -6 19 -7 14 -38 -8 -58
-21 -19 -21 -19 7 -31 35 -16 7 -18 -36 -3 -17 6 -31 17 -31 24 0 20 -50 12
-66 -10 -19 -26 -29 -11 -11 16 9 12 14 33 11 48 -3 18 3 35 19 55 19 24 32
30 65 30 26 1 37 5 31 11 -11 11 -12 75 0 75 5 0 13 -6 19 -12z m360 -15 l27
-27 -25 -7 c-24 -7 -25 -7 -2 -8 14 -1 21 -5 16 -12 -3 -6 -17 -9 -30 -6 -13
2 -21 0 -18 -4 3 -5 13 -9 22 -10 14 0 13 -2 -3 -9 -15 -7 -16 -9 -4 -9 9 -1
24 -11 33 -23 l17 -23 -12 24 c-9 19 -8 22 3 19 19 -7 12 -80 -9 -95 -9 -7
-25 -13 -35 -13 -13 0 -18 -8 -18 -25 0 -14 -4 -25 -10 -25 -5 0 -10 11 -10
25 0 17 -5 25 -18 25 -10 0 -26 6 -35 12 -21 16 -28 89 -9 96 11 3 12 0 2 -19
l-11 -24 18 21 c10 12 25 24 33 27 11 4 10 6 -4 6 -20 1 -20 1 0 16 18 14 18
14 -2 9 -12 -3 -25 -1 -28 5 -5 7 2 11 16 12 23 1 22 1 -2 8 l-25 7 27 27 c15
15 37 27 48 27 12 0 33 -12 48 -27z m385 -14 c14 -12 18 -22 12 -35 -7 -18 -7
-18 -15 1 -8 19 -9 19 -9 -2 -1 -13 -6 -23 -13 -23 -6 0 -9 -3 -6 -6 7 -7 50
14 60 30 5 6 8 2 8 -11 0 -15 -10 -28 -30 -38 -16 -9 -30 -22 -30 -29 0 -26
-31 -27 -52 -1 -11 14 -25 25 -31 25 -6 0 -1 -7 11 -16 39 -27 18 -83 -24 -67
-16 6 -17 5 -6 -9 7 -9 21 -14 32 -11 11 3 20 0 20 -6 0 -18 -67 -12 -106 10
-26 14 -40 17 -47 10 -6 -6 -18 -11 -26 -11 -12 0 -9 7 11 28 14 15 40 42 56
60 27 28 54 38 93 34 3 -1 4 10 1 24 -4 20 3 32 29 54 21 17 35 24 38 17 2 -7
13 -19 24 -28z m1137 -1 c0 -4 5 -8 10 -8 6 0 10 11 10 25 0 14 5 25 10 25 6
0 10 -11 10 -25 0 -32 15 -32 37 1 l17 26 8 -22 c13 -35 0 -192 -17 -209 -19
-19 -81 -19 -100 0 -16 16 -29 163 -19 206 7 25 8 25 20 8 8 -11 14 -22 14
-27z m-940 -30 c0 -19 28 -6 39 19 l13 28 15 -28 c19 -37 13 -87 -12 -101 -11
-6 -22 -12 -24 -13 -2 -2 3 -11 12 -21 12 -13 15 -28 11 -51 -8 -36 -25 -36
-35 0 l-6 24 -4 -24 c-6 -36 -25 -36 -33 0 -4 23 -1 38 11 51 9 10 14 19 12
21 -2 1 -13 7 -24 13 -25 14 -31 56 -14 96 12 28 13 29 26 12 7 -10 13 -21 13
-26z m382 31 c27 -13 98 -95 98 -112 0 -7 -14 3 -30 21 -25 27 -31 30 -37 17
-3 -9 -1 -21 5 -27 6 -6 2 -24 -15 -54 -27 -49 -38 -56 -29 -20 5 19 1 25 -18
30 -30 7 -41 37 -26 68 11 22 10 22 -4 4 -21 -26 -14 -75 14 -98 l22 -18 -23
0 c-13 1 -35 7 -49 15 -14 7 -37 11 -52 8 -49 -10 -68 32 -36 74 5 7 6 22 2
35 -6 19 -5 21 7 11 21 -17 72 -35 64 -23 -9 15 13 48 43 64 33 19 35 19 64 5z
m315 4 c-11 -3 -16 -11 -13 -19 7 -17 -6 -18 -22 -2 -20 20 -14 28 21 27 18
-1 24 -3 14 -6z m583 -35 c0 -19 28 -6 39 19 l13 28 15 -28 c19 -37 13 -87
-12 -101 -11 -6 -22 -12 -24 -13 -2 -2 3 -11 12 -21 12 -13 15 -28 11 -51 -8
-36 -25 -36 -35 0 l-6 24 -4 -24 c-6 -36 -25 -36 -33 0 -4 23 -1 38 11 51 9
10 14 19 12 21 -2 1 -13 7 -24 13 -25 14 -31 56 -14 96 12 28 13 29 26 12 7
-10 13 -21 13 -26z m-625 12 c10 -11 24 -20 30 -20 7 0 24 9 38 20 14 11 36
20 49 19 l23 0 -22 -9 c-16 -7 -23 -18 -23 -37 0 -19 -12 -39 -37 -64 -21 -20
-54 -57 -73 -83 -19 -25 -38 -46 -42 -46 -17 0 -7 39 11 45 11 3 25 13 33 22
12 15 11 15 -12 1 -14 -9 -40 -19 -58 -23 -18 -4 -30 -10 -28 -14 7 -10 -12
-37 -20 -29 -4 4 1 19 11 34 9 15 12 23 6 20 -13 -9 -17 3 -25 68 -6 49 -6 49
14 31 19 -17 20 -17 28 4 l7 21 33 -23 c17 -12 32 -29 33 -37 0 -12 2 -12 6
-1 3 8 -4 22 -17 31 -19 15 -21 20 -10 39 7 15 17 20 28 16 13 -5 13 -2 -3 15
-10 11 -14 20 -8 20 5 0 18 -9 28 -20z m722 -137 c-15 -15 -15 -17 1 -30 14
-10 15 -14 3 -22 -11 -7 -11 -9 0 -14 8 -3 2 -6 -13 -6 -28 -1 -39 21 -18 34
6 4 8 11 4 16 -7 11 26 52 35 44 2 -3 -3 -13 -12 -22z m-1018 -12 c-6 -2 -18
4 -27 13 -15 15 -15 15 10 4 15 -7 23 -15 17 -17z m61 -11 c0 -5 -2 -10 -4
-10 -3 0 -8 5 -11 10 -3 6 -1 10 4 10 6 0 11 -4 11 -10z m-1440 -10 c0 -5 -5
-10 -11 -10 -5 0 -7 5 -4 10 3 6 8 10 11 10 2 0 4 -4 4 -10z m978 -2 c21 -21
14 -38 -15 -37 -16 0 -22 3 -14 6 10 4 11 7 1 13 -7 4 -9 13 -6 19 9 14 19 14
34 -1z m148 0 c4 -6 2 -14 -5 -16 -11 -4 -11 -6 0 -13 10 -6 6 -9 -13 -9 -30
0 -37 17 -16 38 15 15 25 15 34 0z m210 -16 c-4 -3 -14 2 -24 12 -16 18 -16
18 6 6 13 -6 21 -14 18 -18z m922 16 c21 -21 14 -38 -15 -37 -16 0 -22 3 -14
6 10 4 11 7 1 13 -7 4 -9 13 -6 19 9 14 19 14 34 -1z m-300 -42 c-11 -20 -11
-20 -19 -1 -14 37 -11 47 10 33 16 -10 18 -16 9 -32z m96 9 c-6 -26 -8 -27
-20 -10 -12 15 -11 20 4 31 22 16 25 13 16 -21z m-881 -2 c-7 -2 -19 -2 -25 0
-7 3 -2 5 12 5 14 0 19 -2 13 -5z"/>
<path d="M131 1214 c0 -11 3 -14 6 -6 3 7 2 16 -1 19 -3 4 -6 -2 -5 -13z"/>
<path d="M181 1214 c0 -11 3 -14 6 -6 3 7 2 16 -1 19 -3 4 -6 -2 -5 -13z"/>
<path d="M1331 1194 c0 -11 3 -14 6 -6 3 7 2 16 -1 19 -3 4 -6 -2 -5 -13z"/>
<path d="M1340 1170 c-8 -5 -10 -10 -5 -10 6 0 17 5 25 10 8 5 11 10 5 10 -5
0 -17 -5 -25 -10z"/>
<path d="M408 1233 c7 -3 16 -2 19 1 4 3 -2 6 -13 5 -11 0 -14 -3 -6 -6z"/>
<path d="M448 1223 c-10 -2 -18 -9 -18 -14 0 -6 7 -6 19 1 16 8 20 6 24 -13 4
-19 4 -18 6 6 0 15 -2 26 -6 26 -5 -1 -16 -3 -25 -6z"/>
<path d="M2358 1123 c7 -3 16 -2 19 1 4 3 -2 6 -13 5 -11 0 -14 -3 -6 -6z"/>
<path d="M1221 1164 c0 -11 3 -14 6 -6 3 7 2 16 -1 19 -3 4 -6 -2 -5 -13z"/>
<path d="M1188 1133 c6 -2 18 -2 25 0 6 3 1 5 -13 5 -14 0 -19 -2 -12 -5z"/>
<path d="M1734 1134 c-18 -14 -18 -15 4 -4 12 6 22 13 22 15 0 8 -5 6 -26 -11z"/>
<path d="M2040 1145 c-7 -9 -11 -17 -9 -20 3 -2 10 5 17 15 14 24 10 26 -8 5z"/>
<path d="M2055 1120 c-3 -6 1 -7 9 -4 18 7 21 14 7 14 -6 0 -13 -4 -16 -10z"/>
<path d="M879 1043 c-13 -16 -12 -17 4 -4 9 7 17 15 17 17 0 8 -8 3 -21 -13z"/>
<path d="M800 1043 c8 -3 24 -10 35 -15 20 -9 20 -9 1 6 -11 9 -27 16 -35 15
-14 0 -14 -1 -1 -6z"/>
<path d="M452 787 c-14 -16 14 -77 36 -77 12 0 11 5 -6 23 -24 26 -29 53 -9
60 7 4 8 6 1 6 -6 1 -16 -5 -22 -12z"/>
<path d="M131 894 c0 -11 3 -14 6 -6 3 7 2 16 -1 19 -3 4 -6 -2 -5 -13z"/>
<path d="M181 894 c0 -11 3 -14 6 -6 3 7 2 16 -1 19 -3 4 -6 -2 -5 -13z"/>
<path d="M1971 794 c0 -11 3 -14 6 -6 3 7 2 16 -1 19 -3 4 -6 -2 -5 -13z"/>
<path d="M2011 794 c0 -11 3 -14 6 -6 3 7 2 16 -1 19 -3 4 -6 -2 -5 -13z"/>
<path d="M1231 794 c0 -11 3 -14 6 -6 3 7 2 16 -1 19 -3 4 -6 -2 -5 -13z"/>
<path d="M1167 783 c-3 -5 9 -9 26 -10 24 -2 28 0 17 7 -18 12 -37 13 -43 3z"/>
<path d="M1770 766 c0 -2 9 -6 20 -9 11 -3 18 -1 14 4 -5 9 -34 13 -34 5z"/>
<path d="M1831 754 c0 -11 3 -14 6 -6 3 7 2 16 -1 19 -3 4 -6 -2 -5 -13z"/>
<path d="M1871 754 c0 -11 3 -14 6 -6 3 7 2 16 -1 19 -3 4 -6 -2 -5 -13z"/>
<path d="M2371 744 c0 -11 3 -14 6 -6 3 7 2 16 -1 19 -3 4 -6 -2 -5 -13z"/>
<path d="M2431 744 c0 -11 3 -14 6 -6 3 7 2 16 -1 19 -3 4 -6 -2 -5 -13z"/>
<path d="M790 727 c0 -3 15 -10 32 -16 18 -6 28 -7 23 -2 -12 10 -55 25 -55
18z"/>
<path d="M451 594 c0 -11 3 -14 6 -6 3 7 2 16 -1 19 -3 4 -6 -2 -5 -13z"/>
<path d="M501 594 c0 -11 3 -14 6 -6 3 7 2 16 -1 19 -3 4 -6 -2 -5 -13z"/>
<path d="M410 539 c0 -13 30 -31 42 -26 8 3 5 6 -6 6 -18 1 -19 2 -3 14 16 11
15 12 -8 12 -14 0 -25 -3 -25 -6z"/>
<path d="M497 538 c2 -5 12 -8 21 -9 14 0 13 -2 -3 -9 -14 -6 -15 -9 -4 -9 14
-1 39 17 39 29 0 3 -13 5 -29 5 -16 0 -27 -3 -24 -7z"/>
<path d="M464 467 c-3 -9 -4 -26 -1 -39 3 -17 5 -15 6 10 1 39 18 43 24 5 4
-28 4 -28 3 1 -1 32 -22 47 -32 23z"/>
<path d="M901 554 c0 -11 3 -14 6 -6 3 7 2 16 -1 19 -3 4 -6 -2 -5 -13z"/>
<path d="M880 530 c8 -5 20 -10 25 -10 6 0 3 5 -5 10 -8 5 -19 10 -25 10 -5 0
-3 -5 5 -10z"/>
<path d="M218 593 c7 -3 16 -2 19 1 4 3 -2 6 -13 5 -11 0 -14 -3 -6 -6z"/>
<path d="M161 564 c1 -24 2 -25 6 -7 4 19 8 21 24 13 13 -7 19 -7 19 0 0 5 -4
10 -9 10 -5 0 -16 3 -25 6 -12 5 -16 0 -15 -22z"/>
<path d="M1821 474 c0 -11 3 -14 6 -6 3 7 2 16 -1 19 -3 4 -6 -2 -5 -13z"/>
<path d="M1861 474 c0 -11 3 -14 6 -6 3 7 2 16 -1 19 -3 4 -6 -2 -5 -13z"/>
<path d="M1146 541 c-4 -5 3 -7 14 -4 23 6 26 13 6 13 -8 0 -17 -4 -20 -9z"/>
<path d="M1331 524 c0 -11 3 -14 6 -6 3 7 2 16 -1 19 -3 4 -6 -2 -5 -13z"/>
<path d="M1348 493 c6 -2 18 -2 25 0 6 3 1 5 -13 5 -14 0 -19 -2 -12 -5z"/>
<path d="M2051 424 c0 -11 3 -14 6 -6 3 7 2 16 -1 19 -3 4 -6 -2 -5 -13z"/>
<path d="M2111 424 c0 -11 3 -14 6 -6 3 7 2 16 -1 19 -3 4 -6 -2 -5 -13z"/>
<path d="M2371 424 c0 -11 3 -14 6 -6 3 7 2 16 -1 19 -3 4 -6 -2 -5 -13z"/>
<path d="M2431 424 c0 -11 3 -14 6 -6 3 7 2 16 -1 19 -3 4 -6 -2 -5 -13z"/>
<path d="M451 274 c0 -11 3 -14 6 -6 3 7 2 16 -1 19 -3 4 -6 -2 -5 -13z"/>
<path d="M501 274 c0 -11 3 -14 6 -6 3 7 2 16 -1 19 -3 4 -6 -2 -5 -13z"/>
<path d="M2031 193 c-6 -12 -11 -25 -11 -30 1 -4 7 3 14 17 l14 25 13 -28 c7
-15 18 -27 24 -27 6 0 17 12 24 27 l13 28 14 -25 c7 -14 13 -20 14 -14 0 5 -6
19 -14 29 -13 18 -14 17 -31 -9 l-18 -27 -22 27 c-22 28 -22 28 -34 7z"/>
<path d="M2051 104 c0 -11 3 -14 6 -6 3 7 2 16 -1 19 -3 4 -6 -2 -5 -13z"/>
<path d="M2111 104 c0 -11 3 -14 6 -6 3 7 2 16 -1 19 -3 4 -6 -2 -5 -13z"/>
<path d="M1091 204 c0 -11 3 -14 6 -6 3 7 2 16 -1 19 -3 4 -6 -2 -5 -13z"/>
<path d="M1151 204 c0 -11 3 -14 6 -6 3 7 2 16 -1 19 -3 4 -6 -2 -5 -13z"/>
<path d="M1078 173 c7 -3 16 -2 19 1 4 3 -2 6 -13 5 -11 0 -14 -3 -6 -6z"/>
<path d="M1158 173 c7 -3 16 -2 19 1 4 3 -2 6 -13 5 -11 0 -14 -3 -6 -6z"/>
<path d="M1321 154 c0 -11 3 -14 6 -6 3 7 2 16 -1 19 -3 4 -6 -2 -5 -13z"/>
<path d="M1350 140 c-13 -9 -13 -10 0 -10 8 0 22 5 30 10 13 9 13 10 0 10 -8
0 -22 -5 -30 -10z"/>
<path d="M2371 204 c0 -11 3 -14 6 -6 3 7 2 16 -1 19 -3 4 -6 -2 -5 -13z"/>
<path d="M2431 204 c0 -11 3 -14 6 -6 3 7 2 16 -1 19 -3 4 -6 -2 -5 -13z"/>
<path d="M2358 173 c7 -3 16 -2 19 1 4 3 -2 6 -13 5 -11 0 -14 -3 -6 -6z"/>
<path d="M2438 173 c7 -3 16 -2 19 1 4 3 -2 6 -13 5 -11 0 -14 -3 -6 -6z"/>
<path d="M1641 114 c0 -11 3 -14 6 -6 3 7 2 16 -1 19 -3 4 -6 -2 -5 -13z"/>
<path d="M1681 114 c0 -11 3 -14 6 -6 3 7 2 16 -1 19 -3 4 -6 -2 -5 -13z"/>
<path d="M1716 121 c-4 -5 3 -7 14 -4 23 6 26 13 6 13 -8 0 -17 -4 -20 -9z"/>
</g>
</svg>
